{"title":"Love Sex Aur Dhokha.2010.Hindi 1CD DvDRip@Mastitorrents","uid":5473737,"size":728609728,"categoryP":"video","categoryS":"movies","magnet":"?xt=urn:btih:b8e8347fcd563b4df2643d29d7fd2ce3392f125d&amp;dn=Love+Sex+Aur+Dhokha.2010.Hindi+1CD+DvDRip%40Mastitorrents&amp;tr=udp%3A%2F%2Ftracker.openbittorrent.com%3A80&amp;tr=udp%3A%2F%2Fopen.demonii.com%3A1337&amp;tr=udp%3A%2F%2Ftracker.coppersurfer.tk%3A6969&amp;tr=udp%3A%2F%2Fexodus.desync.com%3A6969","seeders":0,"leechers":1,"uploader":"amanrulz","files":2,"time":1270030720,"description":"Mastitorrents.com &lt;a href=&quot;\nhttp://mastitorrents.com/forums/index.php&quot; rel=&quot;nofollow&quot; target=&quot;_NEW&quot;&gt;\nhttp://mastitorrents.com/forums/index.php&lt;/a&gt;\n\nComplete name                    : Love Sex Aur Dhokha.2010.1CD DvDRip\nFormat                           : AVI\nFormat/Info                      : Audio Video Interleave\nFormat profile                   : OpenDML\nFile size                        : 682 MiB\nDuration                         : 1h 48mn\nOverall bit rate                 : 822Kbps\n\nID                               : 0\nFormat                           : MPEG-4\nFormat profile                   : Advanced Simple@L5\nFormat settings, BVOP            : Yes\nFormat settings, QPel            : No\nFormat settings, GMC             : No warppoints\nFormat settings, Matrix          : Default (H.263)\nCodec ID                         : XVID\nCodec ID/Hint                    : XviD\nDuration                         : 1h 48mn\nBit rate                         : 786 Kbps\nWidth                            : 608 pixels\nHeight                           : 304 pixels\nDisplay aspect ratio             : 2.000\nFrame rate                       : 25.000 fps\nResolution                       : 8 bits\nColorimetry                      : 4:2:0\nScan type                        : Progressive\nBits/(Pixel*Frame)               : 0.172\nStream size                      : 617 MiB (90%)\n\nFormat                           : MPEG Audio\nFormat version                   : Version 1\nFormat profile                   : Layer 3\nMode                             : Joint stereo\nFormat_Settings_ModeExtension    : MS Stereo\nCodec ID                         : 55\nCodec ID/Hint                    : MP3\nDuration                         : 1h 48mn\nBit rate mode                    : Constant\nBit rate                         : 80.0 Kbps\nChannel(s)                       : 2 channels\nSampling rate                    : 32.0 KHz\nStream size                      : 62.2 MiB (9%)\nAlignment                        : Aligned on interleaves\nInterleave, duration             : 854 ms (21.35 video frames)\nInterleave, preload duration     : 216 ms\n\nNote Join Mastitorrents","torrent":{"xt":"urn:btih:b8e8347fcd563b4df2643d29d7fd2ce3392f125d","amp;dn":"Love+Sex+Aur+Dhokha.2010.Hindi+1CD+DvDRip%40Mastitorrents","amp;tr":["udp%3A%2F%2Ftracker.openbittorrent.com%3A80","udp%3A%2F%2Fopen.demonii.com%3A1337","udp%3A%2F%2Ftracker.coppersurfer.tk%3A6969","udp%3A%2F%2Fexodus.desync.com%3A6969"],"infoHash":"b8e8347fcd563b4df2643d29d7fd2ce3392f125d","infoHashBuffer":{"type":"Buffer","data":[184,232,52,127,205,86,59,77,242,100,61,41,215,253,44,227,57,47,18,93]},"announce":[],"urlList":[]}}